<?xml version="1.0" encoding="UTF-8" standalone="no"?>
<svg
   width="600"
   height="600"
   viewBox="0 0 600 600"
   version="1.1"
   id="svg70"
   sodipodi:docname="free-floral-circle-border-svg-file-cricut-silhouette.svg"
   inkscape:version="1.2.1 (9c6d41e410, 2022-07-14)"
   xmlns:inkscape="http://www.inkscape.org/namespaces/inkscape"
   xmlns:sodipodi="http://sodipodi.sourceforge.net/DTD/sodipodi-0.dtd"
   xmlns="http://www.w3.org/2000/svg"
   xmlns:svg="http://www.w3.org/2000/svg"
   xmlns:rdf="http://www.w3.org/1999/02/22-rdf-syntax-ns#"
   xmlns:cc="http://creativecommons.org/ns#"
   xmlns:dc="http://purl.org/dc/elements/1.1/">
  <title
     id="title1222">Free Floral Circle Border SVG file for Cricut, Silhouette, and More</title>
  <defs
     id="defs74" />
  <sodipodi:namedview
     id="namedview72"
     pagecolor="#ffffff"
     bordercolor="#000000"
     borderopacity="0.25"
     inkscape:showpageshadow="2"
     inkscape:pageopacity="0.0"
     inkscape:pagecheckerboard="0"
     inkscape:deskcolor="#d1d1d1"
     showgrid="false"
     inkscape:zoom="1.3566667"
     inkscape:cx="300.36855"
     inkscape:cy="300.36855"
     inkscape:window-width="1920"
     inkscape:window-height="1001"
     inkscape:window-x="-9"
     inkscape:window-y="-9"
     inkscape:window-maximized="1"
     inkscape:current-layer="svg70" />
  <g
     id="templatesarea.com">
    <g
       id="SPLINE">
      <g
         id="g60">
        <path
           d="m433.23,139.32c.64.56,1.29,1.46,2.24,1.05,1.34-.58.8-1.83.56-2.79-.91-3.76-3.56-6.45-6.11-9.21.38,3.94,0,8.04,3.31,10.95Zm15.52,14.1c2.6,6.31,7.73,5.82,12.31,6.46-3.2-3.32-6.47-6.47-12.31-6.46Zm33.46-46.26c-19.84,9.68-32.86,23.05-35.33,35.96,14.87-4.54,30.06-19.84,35.33-35.96Zm-39.29,27.16c4.69-4.68,5.67-12.89,2.53-21.13-4.36,8.63-5.01,14.04-2.53,21.13Zm34.52,9.58c-12.08-1.89-19.01-1.94-22.03,3.27,7.49,2.3,14.4.87,22.03-3.27Zm-34.98-42.68c2.3-2.4,3.94-7.24,7.27-6.31,3.07.86,2.76,5.85,3.5,9.12.8,3.63,1.11,7.38,1.72,11.72,10.13-14.26,26.71-15.08,40.69-21.61-6.55,13.87-7.22,30.62-21.89,40.82,6.72.67,12.81,1.3,18.65,3.3,3.28,1.13,3.58,2.46,1.08,4.79-7.35,6.88-14.89,13.32-27.14,11.36,5.29,6.29,11.12,9.07,18.33,10.99-3.09,2.44-6.09,2.77-9.04,3.05-4.53.43-9.5.68-13.35-1.35-5.64-3-10.78-2.33-15.79-.63l-.45-1.39c1.77-.69,2.59-1.76,1.85-4.06-1.43-4.49-2.97-8.92-6.69-12.31-3.24-3.78-7.91-5.24-12.53-6.83-1.41-.49-2.34-.37-2.98.15l-1.21-1.38c2.17-1.92.92-3.73.15-5.97-2.84-8.11-4.52-16.39-2.51-25.01.32-1.38.96-2.7,1.78-4.98,1.53,3.83,2.53,6.98,4.01,9.88,1.54,3.03,3.7,5.71,7.37,9.06-.5-7.28.02-13.45,4.25-18.52,1.04-1.25,1.84-2.71,2.95-3.87Z"
           style="fill: #8a0083; stroke-width: 0px;"
           id="path2" />
        <path
           d="m497.28,212.74c4.1-6.82,9.49-11.22,16.14-16.39-7.04-.15-10.3,3.89-14.47,6.83,1.81-6.3,4.65-12.01,10.69-15.36,5.74-3.19,11.46-2.03,17,.96,3.17,1.71,1.32,3.41.16,5.2-6.82,10.52-17.51,14.87-29.52,18.75Z"
           style="fill: #8a0083; stroke-width: 0px;"
           id="path4" />
        <path
           d="m413.65,100.02c-3.21,5.12-7.51,6.99-12.56,4.51-5.54-2.73-10.62-6.35-16.55-9.99,12.2-5.76,19.81,3.39,29.11,5.48Z"
           style="fill: #8a0083; stroke-width: 0px;"
           id="path6" />
        <path
           d="m495.22,205.06c-3.53-5.61-6.94-10.43-9.72-15.6-2.64-4.91-1.25-9.06,4.09-13.7,2.3,9.62,11.5,17.35,5.62,29.3Z"
           style="fill: #8a0083; stroke-width: 0px;"
           id="path8" />
        <path
           d="m401.14,63.45c4.24,6.93,3.38,15.21-2.47,20.84-3.4,3.27-7.33,5.65-13.34,7.18,4.12-4.75,8.08-7.91,8.12-14.59-5.42,5.82-9.7,11.55-15.66,15.34.5-9.73,10.66-25.61,19.11-30.13,2.18-1.17,3.07-.55,4.23,1.36Z"
           style="fill: #8a0083; stroke-width: 0px;"
           id="path10" />
        <path
           d="m351.66,90.66l1.81,1.17c-.86,1.34-1.89,2.61-3.1,3.81-4.19,4.15-9.04,6.12-14.77,3.89-6.71-2.6-11.14-7.38-12.08-14.72-.5-3.94.19-7.8,2.3-11.69,1.68,9.52,3.53,11.32,12.74,11.3,2.79,0,3.23,1.51,4.13,3.27,1.2,2.35,2.11,5.57,5.35,5.29,1.74-.14,2.83-1.08,3.6-2.33Z"
           style="fill: #8a0083; stroke-width: 0px;"
           id="path12" />
        <path
           d="m499,238.28c-1.15.74-2.09,1.72-2.27,3.3-.32,2.7,1.94,4.02,3.81,4.67,3.81,1.34,4.98,3.36,4.79,7.52-.28,5.85,3.2,8.73,10.26,10.02-5.65,3.63-13.16,3.54-18.47-.57-5.26-4.08-8.82-9.22-7.42-16.33.76-3.82,4.05-7.78,8.05-10.43l1.25,1.82Z"
           style="fill: #8a0083; stroke-width: 0px;"
           id="path14" />
        <path
           d="m244.39,90.43c.81,1.34,1.98,2.38,3.81,2.66,3.66.56,4.46-3.21,5.55-5.71.95-2.15,1.92-2.87,4.39-2.82,8.21.19,10.93-2.37,12.18-10.76,6.31,10.9-.11,24.71-12.33,26.54-5.75.85-12.05-3.03-15.53-8.7l1.93-1.21Z"
           style="fill: #8a0083; stroke-width: 0px;"
           id="path16" />
        <path
           d="m507.5,323.01c-2.17,2.77-2.83,5.92-2.27,9.2.48,2.94-1.64,3.11-3.36,3.97-2.4,1.18-5.58,2.2-5.23,5.45.16,1.56,1.06,2.61,2.24,3.4l-1.27,1.73c-.23-.15-.47-.31-.7-.48-6.35-4.59-8.9-10.72-6.98-16.73,2.34-7.34,9.75-12.85,17.19-12.71,3.06.06,5.98.76,8.87,2.44-3.19.62-6.35.98-8.48,3.73Z"
           style="fill: #8a0083; stroke-width: 0px;"
           id="path18" />
        <path
           d="m498.77,379.98c4.16,3.03,7.49,7.04,14.17,6.91-6.08-5.06-11.55-9.59-16.28-16.57,12.15,4.03,22.42,8.2,29.52,18.03,3.02,4.17,1.84,5.7-2.2,7.34-8,3.23-15.37,1.27-20.55-5.69-2.24-3.02-3.99-6.23-4.67-10.02Z"
           style="fill: #8a0083; stroke-width: 0px;"
           id="path20" />
        <path
           d="m202.86,76.86c0,6.59,3.8,9.99,6.8,14.08-6.25-1.82-11.89-4.59-15.26-10.59-3.12-5.55-2.09-11.12.65-16.56,1.29-2.54,2.78-2.69,5.12-1.01,6.58,4.74,11.87,10.44,14.74,18.17,1.31,3.51,2.73,6.98,4.11,10.46-6.75-3.16-11.05-8.57-16.16-14.55Z"
           style="fill: #8a0083; stroke-width: 0px;"
           id="path22" />
        <path
           d="m486.5,391.64c2.64-4.24,5.39-8.4,8.16-12.71,4.39,6.33,3.55,10.36-5.82,28.45-5.49-5.69-6.05-9.77-2.34-15.74Z"
           style="fill: #8a0083; stroke-width: 0px;"
           id="path24" />
        <path
           d="m211.37,94.6c-19.34,13.11-22.34,13.72-28.98,5.85,9.44-2.4,17.16-11.57,28.98-5.85Z"
           style="fill: #8a0083; stroke-width: 0px;"
           id="path26" />
        <path
           d="m113.82,108.2c7.6,16.14,18.08,29.39,35.71,35.45-3.21-14.27-22.32-33.23-35.71-35.45Zm36.32,4.32c-.61,7.63-2.43,14.12,1.17,20.34.42.73.62,1.99,1.69,1.84,1.02-.13,1-1.31,1.17-2.15,1.36-6.8.22-13.09-4.03-20.04Zm-31.9,31.27c9.79,5.39,17.17,6.06,22.49,2.64-6.55-5.37-13.94-2.85-22.49-2.64Zm15.79,16.13c8.49.38,11.52-1.22,12.58-6.24-4.99-.16-8.03,3.48-12.58,6.24Zm32.1-31.17c-2.61,3.67-6.67,6.68-6.21,12.41,6.47-2.18,5.77-7.58,6.21-12.41Zm-20.2,35.77c-.64-1.53-2.5.06-3.7.53-6.82,2.73-13.89,4.01-21.21,3.76-3.21-.11-6.32-.7-9.79-2.96,7.08-2.14,13.24-4.44,18.18-10.99-11.7,1.73-19.12-4.56-26.49-11.03-3.1-2.71-2.45-4.25,1.3-5.39,5.57-1.7,11.25-2.69,18.45-2.9-14.65-10.44-15.6-27.08-22.13-41.15,13.78,6.44,30.28,7.28,40.88,21.96.71-6.55,1.21-12.16,2.97-17.5,1.73-5.29,2.13-5.43,5.99-1.38,6.61,6.91,12.28,14.29,10.42,25.95,6.58-5.12,9.27-10.96,10.86-17.92,2.65,2.22,2.87,5.1,3.14,7.84.79,7.91-.72,15.49-3.67,22.8-.72,1.77-1.44,3.11.33,4.37l-1.25,1.61c-.46-.26-1.1-.38-2.01-.26-9.04,1.07-18.79,10.8-20.2,20.14-.17,1.12,0,1.84.36,2.31l-1.89,1.2c-.2-.29-.38-.64-.53-1.01Z"
           style="fill: #8a0083; stroke-width: 0px;"
           id="path28" />
        <path
           d="m445.92,439.75c6.45,18.21,19.56,28.73,36.56,36.59-7.85-17.07-18.41-30.18-36.56-36.59Zm-9.86,2.53c-6.38,2.82-6.11,7.92-6.68,13.37q6.05-7.74,6.68-13.37Zm6.46,6.78c-2.34,7.26-1.7,12.47,3,21.85,2.3-13.07,1.57-18.02-3-21.85Zm19.01-25.49c-8.57-.02-11.19,1.38-12.19,6.4,5.02-.13,8.26-3.37,12.19-6.4Zm-7.21,12.88c7.16,6.08,14.6,3.69,21.81,2.88-6.58-3.96-13.47-5.59-21.81-2.88Zm.19,31.11c-.68,7.05-1.48,12.9-3.39,18.52-1.09,3.26-2.4,3.43-4.88,1.11-7.49-7-11.03-14.57-11.68-25.72-4.76,2.45-6.21,4.69-10.8,16.76-2.7-4.1-3.01-8.37-2.76-12.62.22-3.78-.08-8.2,1.78-11.12,3.26-5.14,2.15-9.62.4-13.95l1.23-.57c.8,2,2.21,2.15,4.37,1.44,4.3-1.43,8.56-2.92,11.41-6,4.29-3.86,6.09-8.55,7.53-13.44.41-1.38.2-2.24-.4-2.84l1.64-1.49c.35.38.67.85.94,1.41.81,1.67,2.49,0,3.68-.45,7.01-2.69,14.24-4.19,21.76-3.75,2.99.18,6.08.51,9.04,3.05-3.48,1.3-6.82,1.87-9.66,3.67-2.72,1.74-5.42,3.46-8.14,7.1,11.52-1.33,19.14,4.39,26.31,11.22,2.92,2.78,2.64,4.06-1.21,5.29-5.68,1.8-11.52,2.59-18.36,3.09,14.69,10.45,15.65,27.03,22.04,40.97-13.89-6.41-30.24-7.47-40.85-21.66Z"
           style="fill: #8a0083; stroke-width: 0px;"
           id="path30" />
        <path
           d="m101.6,204.41c-4.71-4.29-4.26-6.66,5.35-28.39,5.59,5.37,6.23,10.13,2.44,16.09-1.35,2.14-2.79,4.2-4.14,6.32-1.24,1.97-2.43,3.98-3.66,5.98Z"
           style="fill: #8a0083; stroke-width: 0px;"
           id="path32" />
        <path
           d="m413.88,483.16c-9.64,2.2-17.31,11.42-29.68,5.82,5.88-3.66,10.74-7.07,15.94-9.79,4.93-2.6,9.14-1.2,13.74,3.98Z"
           style="fill: #8a0083; stroke-width: 0px;"
           id="path34" />
        <path
           d="m393.1,505.95c-.15-6.08-4.03-9.4-7.42-13.18,13.96,1.71,21.5,14.74,15.64,26.24-1.64,3.22-3.03,3.59-6.1,1.51-10.38-7.06-14.69-17.76-17.37-29.81,2.53,2.53,5.06,5.06,7.59,7.59,2.38,2.38,4.76,4.76,7.66,7.66Z"
           style="fill: #8a0083; stroke-width: 0px;"
           id="path36" />
        <path
           d="m97.8,204.74c-4.46-3.83-7.64-7.95-14.05-7.86,5.32,5.42,10.76,9.72,15.4,16.21-12.49-3.67-22.94-8.47-30.08-18.84-2.1-3.05-1.11-4.35,1.62-5.77,7.73-3.99,15.91-2.34,21.33,4.48,2.55,3.21,4.58,6.71,5.78,11.78Z"
           style="fill: #8a0083; stroke-width: 0px;"
           id="path38" />
        <path
           d="m99.34,242.42c-.19-2.25-1.68-3.59-3.53-4.49l1.22-2.01c3.32,1.75,6.11,4.42,7.89,7.69,3.07,5.65,1.95,11.88-3.11,17.39-5.73,6.24-13.24,7.36-22.16,3.3,9.3-1.66,10.65-3.06,10.94-13.08.09-2.89,2-2.95,3.63-3.88,2.13-1.21,5.35-1.91,5.11-4.92Z"
           style="fill: #8a0083; stroke-width: 0px;"
           id="path40" />
        <path
           d="m342.92,483.55c5.21,1.35,10.13,6.38,12.2,11.97l-2.23,1.09c-.35-.98-.8-1.94-1.38-2.9-2.69-4.44-5.88-4.66-7.92-.08-1.89,4.21-4.19,5.62-8.8,5.59-5.72-.02-8.14,3.43-9.01,10.69-3.82-6.08-3.7-13.34.31-18.91,4.25-5.89,11.13-8.93,16.83-7.44Z"
           style="fill: #8a0083; stroke-width: 0px;"
           id="path42" />
        <path
           d="m106.26,331.05c1.49,6.5-3.06,13.87-9.81,17.31l-1.09-2.27c.33-.18.66-.37,1-.57,4.03-2.44,4.21-5.85-.08-7.62-4.52-1.86-5.85-4.42-5.84-9.2,0-5.65-3.05-7.67-10.57-8.88,10.79-6.05,23.68-.56,26.39,11.24Z"
           style="fill: #8a0083; stroke-width: 0px;"
           id="path44" />
        <path
           d="m269.84,511.21c-1.01-9.71-3.43-12.25-11.69-12.03-3.1.08-4.06-1.14-5.07-3.53-.94-2.24-1.73-5.22-4.89-5.08-1.9.08-3.04,1.03-3.85,2.3l-1.75-1.21c.54-.81,1.15-1.6,1.82-2.36,3.97-4.48,8.69-7.46,14.82-5.57,6.82,2.1,11.59,6.61,13,13.9.84,4.34.11,8.56-2.38,13.58Z"
           style="fill: #8a0083; stroke-width: 0px;"
           id="path46" />
        <path
           d="m112.95,218.78c1.5,6.41,5.06,11.76,10.14,17.88.29-7.18,1.04-12.73,4.98-17.79-3.26-.08-5.59-.79-7.19-3.07-1.71-2.44-.44-4.91.36-7.49-7,1.13-9.66,4.56-8.29,10.47Zm-51.49,75.21c.89-.51,2.31-.59,2.4-1.84.13-1.7-1.64-1.67-2.64-2.2-5.72-3.1-10.92-1.55-16.59,2.13,5.82,3.68,11.08,5.15,16.82,1.91Zm291.66,172.71c6.14,5.09,11.58,8.88,18.29,10.21,5.96,1.18,9.58-2.02,9.59-8-6.75,1.76-8.7.54-10.56-7.01-4.6,3.99-10.19,4.44-17.32,4.8Zm-138.93,1.83c.99,7.31,4.89,10.06,11.28,8.27,6.17-1.73,11.31-5.38,17.28-9.96-6.82-.38-12.7-.67-17.58-4.79-.88,2.81-.87,5.49-3.37,7-2.54,1.53-5.01.74-7.6-.51Zm-5.68-364.28c-7.65,6.45-8.99,13.8-4.01,19.11,3.99,4.26,9.07,4.33,12.79.19-10.23-3.76-11.73-6.84-8.78-19.31Zm264.31,242.57c-.19,6.8-.75,12.67-4.79,17.62,2.9.75,5.56.66,7.09,3.25,1.48,2.5.54,4.98-.27,7.58,6.84-1.12,9.51-4.59,8.13-10.51-1.52-6.59-5.35-11.97-10.16-17.95Zm-6.43,25.5c-4.26,4.33-4.2,9.01-.18,12.81,5.39,5.12,12.94,3.76,18.88-3.96-3.97,1.53-7.85,2.54-11.94.86-4.24-1.74-5.59-5.59-6.75-9.72ZM225.16,106.78c-6.38-1.54-10.43,1.92-10.27,8.5,1.91-1.21,3.8-1.8,6.15-1.08,3.62,1.11,3.23,4.69,4.65,7.47,4.76-4.26,10.5-4.16,17.33-4.93-6.23-4.51-11.42-8.43-17.85-9.97Zm-47.16,65.63c-65.79,65.75-65.75,173.49.08,239.3,65.98,65.96,173.56,65.85,239.72-.25,65.91-65.86,65.9-173.76-.02-239.86-65.53-65.7-173.6-65.33-239.79.81Zm-70.01,121c3.48,2.51,6.12,5.9,9.67,8.67-2.51-7.04-1.75-13.86.16-20.83-3.3,3.35-6.07,6.85-9.89,9.23-1.57.98-1.19,2.02.06,2.92Zm191.47,188.2c2.23-3.73,5.84-6.19,8.78-9.83-6.86,2.74-13.64,2.25-20.58.45,2.97,3.3,6.07,6.05,8.56,9.39,1.13,1.5,2.16,1.77,3.24-.02Zm-1.61,43.79c-5.25,7.53-5.09,13.2.33,19.17,4.01-6.35,4.66-12.55-.33-19.17Zm-175.31-177.18c-4.15,5.04-7.82,10.11-9.66,16.27-1.49,5.01,1.34,11.92,7.91,10.78-1.94-6.36-1.06-7.87,6.64-11.12-3.73-4.62-4.19-10.18-4.88-15.93Zm248.48-226.48c1.45-7.72,3-8.7,10.53-7.32-.7-6.45-4.38-9.26-10.56-7.7-6.37,1.62-11.68,5.24-17.92,10.21,7.21.06,13.02.76,17.95,4.81Zm101.97,114.83c4.8-6.45,9.21-11.98,10.27-19.21.83-5.72-2.39-9.09-8.14-8.73.87,2.42,1.54,4.8-.08,7.21-1.51,2.25-4.1,2.37-6.91,3.06,4.19,5.22,4.43,11.05,4.86,17.68ZM298.27,39.16c-5.25,6.89-5.19,13.01.18,18.48,4.78-7.1,4.73-11.37-.18-18.48Zm235.93,254.29c5.89,3.31,11.29,1.89,17.22-1.98-6.02-3.46-11.32-5.16-17.09-1.79-.9.51-2.33.71-2.03,2.06.15.69,1.15,1.29,1.9,1.71Zm-146.7-188.94c3.7,10.77,1.9,14.91-8.91,19.1,3.13,3.22,6.22,3.58,9.66,2.06,4.06-1.78,5.98-5.15,6.41-9.33.48-4.66-2.4-9.2-7.16-11.83Zm79.87,92.99c-4.86,3.85-5.34,8.86-1.24,13.13,5.05-10.49,8.64-12.11,19.47-8.2-5.3-7.57-12.65-9.35-18.23-4.92Zm-335.02,5.25c-1.25-4.22-4.37-6.41-8.6-7.1-5.84-.94-9.66,2.17-13.53,6.65,13.15-2.64,15.45-1.56,19.71,9.09,3.19-2.33,3.39-5.4,2.43-8.63Zm258.99,257.27c-3.8-3.96-8.69-4.02-12.74.15,10.86,2.57,12.25,9.76,8.18,19.95,8.3-7.33,9.64-14.8,4.56-20.1Zm-103.86-348.36c6.84-2.05,13.67-2.34,20.67-.19-2.67-3.5-5.73-6.05-8.13-9.13-1.76-2.25-2.6-1.81-3.86.11-2.29,3.5-5.54,6.08-8.69,9.21Zm191.06,170.12c2.57,7.04,1.35,13.69-.52,20.42,3.56-3.07,6.15-6.75,10.01-9.07.96-.58,1.76-1.38.5-2.5-3.33-2.94-6.65-5.9-9.99-8.85Zm-354.92,106.52c4.26-.63,7.31-3.05,8.58-7.26.98-3.2.68-6.17-2.51-8.37-4.08,10.46-7.47,12.02-19.35,8.89,3.42,4.91,7.53,7.57,13.28,6.74Zm122.98,80.85c-5.25,1.83-9.69,4.94-12.84,9.58-2.99,4.4-4.7,9.05-1.28,14.07.88,1.29,1.06,2.78.78,4.17-1.7,8.03-1.45,16.13-.49,24.72-9.17-9.4-11.42-20.93-7.48-37.32-2.53.21-4.95.54-7.37.58-7.73.09-13.62-3.2-17.34-9.99-2.47-4.52-3.29-9.34-.48-13.96,2.97-4.89,7.59-6.99,13.31-6.81,1.15.03,2.44.92,3.53-.29-4.36-6.62-12.42-8.9-20.37-5.81-8.3,3.23-10.36,9.04-7.84,22.32-4.8-2.22-7.12-6.17-7.75-11.05-.48-3.76-.34-7.57-.61-11.35-.2-2.86.35-3.67,3.6-2.9,4.14.98,7.18-2.32,6.3-6.42-.94-4.47-4.19-6.67-8.58-6.88-3.82-.18-6.89.9-7.65,5.5-.31,1.87-.41,3.99-1.9,5.48l-1.67-1.47c.57-.65.88-1.67,1.21-2.82.85-2.89-.6-3.18-2.83-3.67-7.32-1.61-11.88-6.38-13.81-13.46-.7-2.57-.88-4.21-4.37-3.17-1.1.33-1.81.74-2.26,1.21l-1.6-1.48c1.12-2.26,4.19-1.97,6.36-2.43,5.78-1.22,5.05-5.47,4.51-9.24-.68-4.62-5.16-7.7-8.97-6.68-3.33.89-4.98,3.21-4.02,6.52.81,2.8.15,3.58-2.63,3.33-4.14-.36-8.33-.26-12.43-.83-4.5-.61-8.07-2.93-10.34-7.74,4.66,1.17,8.93,2.6,13.37,1.08,4.42-1.51,7.33-4.53,9.03-8.77,3.1-7.72.88-15.57-6.24-20.97.31,6.28.3,12.25-4.99,16.42-2.68,2.1-5.74,2.99-9.14,2.66-11.58-1.09-16.9-9.82-16.08-27.05-13.71,5.25-25.87,1.99-37.06-6.98,8.72,1.01,17.37.59,25.97-.75.51-.08,1.08.07,1.6.23,11.38,3.4,18.24.55,23.46-10.33,5.63-11.75,4.87-23.26-2.77-33.86-6.68-9.26-16.01-13.29-27.43-11.75-10.16,1.36-18.98,9.2-20.8,18.15-1.93,9.41,3.56,21.59,12.18,26.53,4.89,2.82,9.98,3.2,14.97.58l1.09,2.27c-1.87.94-3.89,1.59-6.02,1.84-2.47.28-5.13.23-7.53-.37-13.14-3.3-19.57-12.97-22.67-25.21-2.8-11.05,1.76-19.74,10.13-26.79.77-.65,1.53-1.3,3.05-2.57-4.34-.13-7.36,1.15-9.88,3.09-4.03,3.1-8.3,3.3-12.84,1.94-6.18-1.84-12.15-4.19-17.88-8.34,6.39-4.09,12.77-6.71,19.52-8.7,7.9-2.32,12.69,5.56,20.43,5.55-1.97-1.97-3.65-3.62-5.29-5.3-7.64-7.85-9.96-16.99-6.29-27.42,3.95-11.22,10.62-19.82,23.04-22.18,4.45-.84,8.97-.02,12.81,2.02l-1.22,2.01c-.81-.39-1.67-.71-2.54-.98-4.59-1.48-8.97-.77-13.02,1.7-8.82,5.35-14.27,18-11.84,27.2,2.55,9.66,12.73,17.28,23.61,17.66,12.94.45,24.32-7.61,28.95-20.5,4.43-12.36.73-27.13-8.91-34.51-4.51-3.46-9.46-5.31-15.02-1.88-1.02.62-2.5,1.09-3.61.86-8.38-1.71-16.81-1.43-26-.33,12.18-9.87,20.75-11.52,38.06-7.76-1.19-16.79,5.49-27.06,17.46-26.86,8.5.12,13.4,7.3,12.58,18.4,6.35-2.64,9.4-11.74,6.6-19.71-3.1-8.81-10.14-11.51-22.39-8.24,1.94-4.69,5.46-6.86,9.77-7.67,3.17-.61,6.47-.6,9.71-.75,3.34-.16,7.44-1.52,5.63,4.91-.78,2.73,1.94,4.45,4.69,4.91,3.51.59,7.85-2.75,8.39-6.94.51-3.87.86-7.9-4.72-9.13-2.27-.51-5.12-.3-6.75-2.78l1.89-1.2c.6.81,1.78.98,2.99,1.38,2.17.7,3.4.48,3.63-2.1.35-3.98,2.37-7.1,5.63-9.84,2.09-2.77,5.17-4.52,8.91-4.92,2.34-.24,3.17-1.09,2.34-3.45-.45-1.28-.6-2.66-1.64-3.26l1.25-1.61c.18.12.39.25.63.38,2.13,1.14,2.07,3.85,2.33,5.85.71,5.43,4.6,5.49,8.36,5.1,4.36-.44,7.6-3.03,7.71-7.66.09-3.72-2.2-6.62-6.19-5.47-3.89,1.12-3.78-.6-3.65-3.26.36-7.31-.88-15.06,5.88-20.55.54-.43,1.14-.78,2.79-1.91-3.3,10.69-2.51,19.23,8.61,23.12,7.49,2.6,14.69.15,19.94-6.8-6.42.72-12.19.24-16.38-4.99-2.15-2.7-3.01-5.68-2.63-9.08,1.33-11.78,10.84-17.45,27.18-15.76-5.65-13.98-1.88-26.24,7.28-38.59-1.14,9.56-1.43,18.11.32,26.6.2.95-.26,2.12-.65,3.1-2.87,7.14-1.7,12.67,3.84,17.96,16.69,15.91,46.39,7.52,51.99-14.77,2.37-9.46.21-18-6.45-25.14-5.61-6.02-12.55-8.41-20.67-6.19-8.62,2.35-15.46,6.96-18.68,15.75-.91,2.46-.81,5.04-.24,7.51.37,1.61.81,3.34,1.62,4.72l-1.93,1.21c-1.44-2.35-2.4-5.01-2.62-7.75-.51-6.4,1.29-12.15,5.24-17.24,12.98-16.68,33.48-17.53,47.54-1.97.47.53.99,1.01,1.95,1.97.65-3.5-.62-6.2-2.21-8.3-4.29-5.66-3.53-11.45-1.29-17.47,1.75-4.72,3.78-9.3,7.07-14.07,4.41,6.24,6.9,12.8,8.86,19.74,2.21,7.84-6,12.55-5.6,19.71,1.12.54,1.3-.39,1.66-.85,14.01-17.81,41.35-14.71,51.09,5.79,3.5,7.37,3.2,14.63-.67,20.64l-1.81-1.17c.72-1.17,1.17-2.63,1.59-3.96,1.59-5.02.51-9.71-2.42-13.91-5.97-8.58-18.88-13.26-27.8-10.23-9.79,3.34-16.72,13.97-16.38,25.14.4,12.71,8.38,22.99,21.16,27.27,12,4.03,26.19.33,33.58-9,3.66-4.62,5.73-9.65,1.94-15.42-.71-1.08-.85-2.87-.57-4.18,1.79-8.04,1.18-16.13.39-25.31,9.22,12.08,12.55,24.18,7.28,37.92,17.85-.42,27.28,5.82,27.1,17.65-.13,8.52-6.87,13.15-18.38,12.67,2.1,6.02,11.31,9.22,19.11,6.65,9.4-3.1,12.52-10.92,8.8-22.03,7.87.48,9.38,13.51,8.09,25.11-3.33-.7-6.94-1.98-8.93,2.22-1.53,3.22-.45,6.09,2.15,8.24,3.59,2.96,7.51,3.05,11.65.95,1.51-.78,1.12-2.06,1.47-3.19.64-2.07.74-5.04,2.14-5.97.33-.22.61-.43.85-.65l1.21,1.38c-.68.56-1.05,1.59-1.39,2.87-.66,2.54,0,3.31,2.61,3.87,7.54,1.59,12.25,6.48,14.13,13.9.57,2.24.94,3.58,3.79,2.8.44-.12.85-.25,1.21-.38l.45,1.39c-1.77.6-3.51,1.33-5.26,2.07-4.08,1.73-3.76,5.88-2.79,9.32,1.09,3.9,3.73,6.84,8.3,6.19,3.93-.57,5.42-3.19,4.51-7.12-.23-1-1.49-2.75.9-2.68,6.81.19,13.87-.89,20.09,3,1.94,1.21,3.88,2.7,4.06,5.42-11.62-2.97-17.72-1.14-21.52,6.38-3.76,7.48-1.79,16.42,5.79,22.74-.75-7.53.22-13.99,6.59-17.96,2.89-1.8,6.15-1.89,9.45-1.17,10.79,2.36,15.66,11.45,13.83,26.81,13.99-5.49,26.27-1.96,38.65,7.28-9.62-1.08-18.18-1.37-26.65.36-.83.17-1.81-.05-2.65-.33-9.46-3.25-14.58-1.94-20.37,6.21-7.86,11.07-8.44,22.92-2.01,34.76,6.02,11.09,15.7,16.18,28.32,15.18,10.36-.82,19.58-8.47,21.82-17.67,2.23-9.17-2.69-21.2-10.95-26.54-4.86-3.14-10.05-3.95-15.48-1.51-.72.32-1.45.65-2.12,1.08l-1.25-1.82c2.38-1.6,5.02-2.72,7.53-3.07,3.47-.49,6.91-.15,10.16,1.04,12.37,4.5,18.28,14.29,20.61,26.47,2.06,10.79-3.03,18.85-11.22,25.35-.56.44-1.07.93-1.71,1.49,3.73.45,4.66.66,8.23-1.96,5.52-4.06,11.07-3.74,16.94-1.5,2.19.84,4.48,1.54,6.5,2.69,2.56,1.47,7.21,1.82,7.01,4.85-.17,2.46-4.64,3.41-7.39,4.64-2.8,1.26-5.68,2.4-8.61,3.28-4.68,1.41-9.2,1.44-13.41-1.74-2.54-1.91-5.52-3.08-9.75-3.23,1.15,1.15,1.6,1.64,2.08,2.08,16.05,14.11,15.13,35.28-2.1,48.22-7.83,5.88-17.72,6.52-25.03,1.71l1.27-1.73c1.08.71,2.38,1.18,3.62,1.61,3.35,1.17,6.81,1.23,10.08-.18,8.98-3.85,13.57-11.25,15.23-20.41,1.57-8.68-2.17-15.56-9.07-20.69-16.42-12.17-39.82-2.4-44.8,18.64-2.97,12.61,2.17,26.73,11.96,32.46,4.03,2.36,8.21,3.7,12.69.6,1.1-.75,2.86-1.23,4.13-.94,8.38,1.87,16.82,1.3,25.74.5-12.37,9.77-21.23,11.51-38.3,7.55,1.55,7.73,1.35,15.07-4.43,21.07-3.41,3.53-7.55,5.68-12.47,5.82-8.26.24-13.08-6.67-13.11-18.53-6.12,3.2-8.97,11.51-6.55,19.14,2.9,9.16,8.41,11.47,22.25,9.36-2.4,7.77-12.55,8.6-24.88,7.82-.99-1.39.45-2.64.38-3.99-.19-3.77-2.33-5.82-5.87-5.64-4.71.22-7.18,3.56-7.61,7.83-.37,3.72-.27,7.63,5.2,8.35,1.99.27,4.29.48,5.9,2.24l-1.64,1.49c-.56-.56-1.46-.89-2.54-1.18-2.54-.7-3.4.03-3.96,2.59-1.67,7.53-6.49,12.33-13.97,14.05-2.82.65-3.46,1.57-2.78,4.35.1.39.22.74.34,1.04l-1.23.57c-.79-1.96-1.72-3.89-2.43-5.84-1.44-4.01-5.87-3.58-9.43-2.6-4.36,1.2-6.99,5.52-5.75,9.07,1.34,3.84,4.15,4.69,7.81,3.43.46-.15.98-.15,1.9-.27-.58,9.32,1.95,19.21-8.73,26.62,3.56-11.52,2.34-20.37-9.82-23.77-7.31-2.05-14.76.93-18.49,7.24,5.96-1.01,11.35-.32,15.56,4,2.33,2.4,3.53,5.4,3.43,8.86-.33,11.9-10.44,18.31-27.29,16.92,5.49,13.9,1.99,26.22-7.33,38.58,1.28-9.83,1.18-18.66-.32-27.44-.11-.65.21-1.42.46-2.09,3.06-8.1,1.94-12.91-4.33-18.65-9.79-8.96-25.81-10.14-37.9-2.8-11.37,6.9-16.86,19.95-13.15,32.2,2.87,9.5,8.87,16.16,19.12,17.74,8.89,1.36,20.37-4.59,24.86-12.58,2.31-4.13,3.02-8.37,1.54-12.55l2.23-1.09c.47,1.25.79,2.54.94,3.83,1.27,10.84-5.86,21.93-17.6,27.39-14.47,6.71-23.69,4.41-37.47-9.84.02,3.84,1.18,6.76,3.04,9.17,3.37,4.37,3.26,9,1.78,13.87-1.52,5.04-3.72,9.79-6.28,14.38-1.17,2.09-2.14,2.89-3.58.14-2.95-5.61-5.62-11.32-6.98-17.55-.87-3.94.12-7.43,2.44-10.75,1.82-2.59,3.17-5.48,3.23-8.77-1.31-.19-1.6.55-2.04,1.09-14.22,17.32-40.14,14.51-50.49-5.47-3.89-7.5-3.67-15.13.48-21.36l1.75,1.21c-.69,1.11-1.12,2.47-1.57,3.73-1.41,3.94-1.01,7.89.79,11.61,3.93,8.14,15.41,14.44,24.82,13.76,8.55-.61,16.87-7.81,19.63-17.23,3.25-11.1.66-20.93-7.69-28.75-9.68-9.08-21.15-11.19-33.73-6.82Zm-38.14,10.53c-3.56-11.99-2.28-14.76,8.8-19.84-2.67-3.09-5.95-3.46-9.27-2.01-3.86,1.69-6.39,4.78-6.61,9.13-.28,5.39,2.24,9.36,7.09,12.71Z"
           style="fill: #8a0083; stroke-width: 0px;"
           id="path48" />
        <path
           d="m149.77,439.89c-17.53,7.14-32.93,22.98-35.73,36.41,16.16-7.68,29.34-18.12,35.73-36.41Zm-14.92-15.89c3.51,2.7,6.5,6.36,12.32,6.18-2.6-6.3-7.54-6.04-12.32-6.18Zm-15.61,15.61c10.89,2.47,15.96,1.84,21.09-2.6-6.38-2.92-13.41-2.06-21.09,2.6Zm33.08,9.56c-5.21,6.44-3.02,13.67-2.63,21.62,5.16-7.36,6.1-16.13,2.63-21.62Zm-10.25-30.27c1.87.75,3.3,1.91,4.72-.96l1.6,1.48c-.89,1-.6,2.34-.07,4.02,1.37,4.33,3.27,8.34,6.32,11.76,3.67,3.33,8.14,5.15,12.8,6.59,1.53.47,2.42.22,3.01-.46l1.67,1.47c-.38.38-.83.71-1.4.98-2.06,1.01-.37,2.43.11,3.64,2.58,6.64,3.99,13.51,3.84,20.65-.07,3.45-.53,6.83-3.06,10.66-1.98-7.04-4.49-13.18-11.03-18.42,1.8,11.89-4.27,19.39-10.99,26.65-2.68,2.88-4.21,2.75-5.37-1.19-1.68-5.69-2.64-11.52-2.97-18.22-10.48,14.5-27,15.56-40.96,21.94,6.28-13.92,7.41-30.26,21.65-40.78-6.44-.85-12.22-1.42-17.82-3.1-4.37-1.33-4.24-3.01-1.18-5.66,7.3-6.33,14.56-12.73,26.88-10.53-5.6-6.43-11.15-9.54-18.39-10.83,2.23-3,5.19-3,7.82-3.26,7.88-.8,15.48.7,22.81,3.57Zm17.64,23.74c-.61,5.65,3.35,8.65,6.06,12.3-.09-4.9-.11-9.89-6.06-12.3Z"
           style="fill: #8a0083; stroke-width: 0px;"
           id="path50" />
        <path
           d="m106.31,407.83c-2.08-9.56-11.59-17.37-5.55-29.28,3.37,5.42,6.62,10.08,9.29,15.05,3.06,5.72,1.85,9.83-3.73,14.23Z"
           style="fill: #8a0083; stroke-width: 0px;"
           id="path52" />
        <path
           d="m182.45,483.69c3.3-5.77,7.99-6.98,14.1-3.87.48.24.98.47,1.44.76,4.19,2.7,8.38,5.4,13.23,8.53-11.76,5.83-19.44-3.33-28.77-5.42Z"
           style="fill: #8a0083; stroke-width: 0px;"
           id="path54" />
        <path
           d="m69.58,388.74c7.12-9.78,17.4-14.1,29.5-18.04-4.82,6.79-10.06,11.45-16.13,16.4,6.76.37,10.09-3.93,14.23-7.67-2.88,14.45-14.47,21.56-25.74,16.56-3.93-1.74-4.55-3.56-1.86-7.25Z"
           style="fill: #8a0083; stroke-width: 0px;"
           id="path56" />
        <path
           d="m209.58,492.77c-2.96,4.03-7.19,7.21-6.99,14.53,4.91-6.77,9.64-11.93,16.29-16.36-3.73,12.43-8.53,23.09-19.27,30.15-2.58,1.69-3.8.85-5.11-1.41-4.13-7.11-2.78-15.72,3.5-21.14,3.3-2.83,7.01-4.99,11.58-5.77Z"
           style="fill: #8a0083; stroke-width: 0px;"
           id="path58" />
      </g>
    </g>
  </g>
  <g
     id="_0"
     data-name="0">
    <g
       id="MTEXT">
      <text
         transform="translate(201.53 589.19)"
         style="font-family: ArialMT, Arial; font-size: 23.11px;"
         id="text66"><tspan
           x="0"
           y="0"
           id="tspan64">templatesarea.com</tspan></text>
    </g>
  </g>
  <metadata
     id="metadata1220">
    <rdf:RDF>
      <cc:Work
         rdf:about="">
        <cc:license
           rdf:resource="http://creativecommons.org/licenses/by-nc/4.0/" />
        <dc:title>Free Floral Circle Border SVG file for Cricut, Silhouette, and More</dc:title>
        <dc:description>Elevate your creative projects with our free floral circle border cut file. Cut it out with your Cricut or Silhouette machine.</dc:description>
        <dc:publisher>
          <cc:Agent>
            <dc:title>templatesarea.com</dc:title>
          </cc:Agent>
        </dc:publisher>
        <dc:creator>
          <cc:Agent>
            <dc:title>templatesarea.com</dc:title>
          </cc:Agent>
        </dc:creator>
        <dc:rights>
          <cc:Agent>
            <dc:title>Free Floral Circle Border SVG file for Cricut, Silhouette, and More</dc:title>
          </cc:Agent>
        </dc:rights>
      </cc:Work>
      <cc:License
         rdf:about="http://creativecommons.org/licenses/by-nc/4.0/">
        <cc:permits
           rdf:resource="http://creativecommons.org/ns#Reproduction" />
        <cc:permits
           rdf:resource="http://creativecommons.org/ns#Distribution" />
        <cc:requires
           rdf:resource="http://creativecommons.org/ns#Notice" />
        <cc:requires
           rdf:resource="http://creativecommons.org/ns#Attribution" />
        <cc:prohibits
           rdf:resource="http://creativecommons.org/ns#CommercialUse" />
        <cc:permits
           rdf:resource="http://creativecommons.org/ns#DerivativeWorks" />
      </cc:License>
    </rdf:RDF>
  </metadata>
</svg>
